<?xml version="1.0" encoding="UTF-8" standalone="no"?>
<!DOCTYPE svg PUBLIC "-//W3C//DTD SVG 1.1//EN" "http://www.w3.org/Graphics/SVG/1.1/DTD/svg11.dtd">
<svg width="100%" height="100%" viewBox="0 0 101 33" version="1.1" xmlns="http://www.w3.org/2000/svg" xmlns:xlink="http://www.w3.org/1999/xlink" xml:space="preserve" xmlns:serif="http://www.serif.com/" style="fill-rule:evenodd;clip-rule:evenodd;stroke-linejoin:round;stroke-miterlimit:2;">
    <rect id="logo-white-square" x="0" y="0" width="100.183" height="33" style="fill:none;"/>
    <g>
        <path d="M32.459,6.824L32.459,26.024C32.459,29.556 29.591,32.424 26.059,32.424L6.859,32.424C3.326,32.424 0.459,29.556 0.459,26.024L0.459,6.824C0.459,3.292 3.326,0.424 6.859,0.424L26.059,0.424C29.591,0.424 32.459,3.292 32.459,6.824Z" style="fill:#2f6bf6;"/>
        <g>
            <path d="M17.478,9.139C21.853,9.644 25.254,13.366 25.254,17.875C25.254,22.73 21.313,26.671 16.459,26.671C11.604,26.671 7.663,22.73 7.663,17.875C7.663,13.324 11.128,9.575 15.562,9.125C15.562,9.123 15.562,9.121 15.562,9.119C15.562,9.119 15.572,8.721 15.56,8.093L13.891,8.093C13.362,8.093 12.933,7.664 12.933,7.135C12.933,6.607 13.362,6.177 13.891,6.177L19.116,6.177C19.645,6.177 20.074,6.607 20.074,7.135C20.074,7.664 19.645,8.093 19.116,8.093L17.476,8.093C17.486,8.648 17.48,9.031 17.478,9.139ZM16.459,10.996C12.662,10.996 9.579,14.079 9.579,17.875C9.579,21.672 12.662,24.755 16.459,24.755C20.255,24.755 23.338,21.672 23.338,17.875C23.338,14.079 20.255,10.996 16.459,10.996ZM12.221,19.532C11.82,19.187 11.775,18.581 12.12,18.181C12.465,17.78 13.07,17.735 13.471,18.08L15.865,20.14L19.1,13.821C19.341,13.35 19.919,13.164 20.39,13.405C20.86,13.646 21.047,14.224 20.806,14.694L17.016,22.097C16.882,22.359 16.635,22.544 16.347,22.601C16.059,22.657 15.761,22.578 15.538,22.387L12.221,19.532Z" style="fill:#fff;"/>
        </g>
    </g>
    <g>
        <path d="M42.05,22.865L42.05,11.971L38,11.971L38,9.796L48.538,9.796L48.538,11.971L44.506,11.971L44.506,22.865L42.05,22.865Z" style="fill:#fff;fill-rule:nonzero;"/>
        <path d="M49.588,22.865L49.588,13.621L51.912,13.621L51.912,22.865L49.588,22.865ZM49.513,12.196L49.513,9.796L52.006,9.796L52.006,12.196L49.513,12.196Z" style="fill:#fff;fill-rule:nonzero;"/>
        <path d="M53.919,22.865L53.919,13.621L56.263,13.621L56.263,16.021L55.756,16.415C55.844,15.827 55.994,15.34 56.206,14.952C56.419,14.565 56.672,14.262 56.966,14.043C57.259,13.824 57.566,13.668 57.884,13.574C58.203,13.48 58.519,13.434 58.831,13.434C59.319,13.434 59.781,13.524 60.219,13.705C60.656,13.887 61.037,14.196 61.363,14.634C61.688,15.071 61.912,15.671 62.037,16.434L60.65,16.94C60.838,16.065 61.109,15.371 61.466,14.859C61.822,14.346 62.234,13.98 62.703,13.762C63.172,13.543 63.669,13.434 64.194,13.434C64.981,13.434 65.619,13.609 66.106,13.959C66.594,14.309 66.953,14.755 67.184,15.299C67.416,15.843 67.531,16.421 67.531,17.034L67.531,22.865L65.206,22.865L65.206,17.596C65.206,17.134 65.147,16.743 65.028,16.424C64.909,16.105 64.738,15.865 64.513,15.702C64.287,15.54 63.994,15.459 63.631,15.459C63.256,15.459 62.938,15.559 62.675,15.759C62.412,15.959 62.216,16.259 62.084,16.659C61.953,17.059 61.888,17.571 61.888,18.196L61.888,22.865L59.563,22.865L59.563,17.559C59.563,16.859 59.434,16.334 59.178,15.984C58.922,15.634 58.55,15.459 58.063,15.459C57.675,15.459 57.347,15.559 57.078,15.759C56.809,15.959 56.606,16.259 56.469,16.659C56.331,17.059 56.263,17.571 56.263,18.196L56.263,22.865L53.919,22.865Z" style="fill:#fff;fill-rule:nonzero;"/>
        <path d="M73.569,23.052C72.769,23.052 72.081,22.921 71.506,22.659C70.931,22.396 70.459,22.043 70.091,21.599C69.722,21.155 69.45,20.649 69.275,20.08C69.1,19.512 69.013,18.915 69.013,18.29C69.013,17.69 69.1,17.102 69.275,16.527C69.45,15.952 69.713,15.434 70.063,14.971C70.413,14.509 70.866,14.137 71.422,13.855C71.978,13.574 72.644,13.434 73.419,13.434C74.144,13.434 74.775,13.555 75.313,13.799C75.85,14.043 76.294,14.38 76.644,14.812C76.994,15.243 77.259,15.746 77.441,16.321C77.622,16.896 77.713,17.509 77.713,18.159C77.713,18.246 77.709,18.368 77.703,18.524C77.697,18.68 77.681,18.846 77.656,19.021L71.338,19.021C71.4,19.684 71.647,20.184 72.078,20.521C72.509,20.859 73.05,21.027 73.7,21.027C74.175,21.027 74.638,20.943 75.088,20.774C75.538,20.605 75.938,20.365 76.288,20.052L77.45,21.627C77.013,21.965 76.6,22.24 76.213,22.452C75.825,22.665 75.422,22.818 75.003,22.912C74.584,23.005 74.106,23.052 73.569,23.052ZM75.406,17.859C75.431,17.759 75.453,17.659 75.472,17.559C75.491,17.459 75.5,17.365 75.5,17.277C75.5,17.015 75.45,16.768 75.35,16.537C75.25,16.305 75.113,16.102 74.938,15.927C74.763,15.752 74.553,15.618 74.309,15.524C74.066,15.43 73.788,15.384 73.475,15.384C73.013,15.384 72.625,15.477 72.313,15.665C72,15.852 71.766,16.093 71.609,16.387C71.453,16.68 71.356,16.984 71.319,17.296L76.194,17.296L75.406,17.859Z" style="fill:#fff;fill-rule:nonzero;"/>
        <path d="M82.813,23.052C82,23.052 81.3,22.843 80.713,22.424C80.125,22.005 79.672,21.43 79.353,20.699C79.034,19.968 78.875,19.146 78.875,18.234C78.875,17.221 79.053,16.359 79.409,15.646C79.766,14.934 80.244,14.387 80.844,14.005C81.444,13.624 82.1,13.434 82.813,13.434C83.313,13.434 83.778,13.537 84.209,13.743C84.641,13.949 85.013,14.259 85.325,14.671C85.638,15.084 85.844,15.609 85.944,16.246L85.475,16.115L85.475,9.796L87.781,9.796L87.781,22.865L85.475,22.865L85.475,20.39L86.019,20.127C85.869,20.852 85.628,21.43 85.297,21.862C84.966,22.293 84.584,22.599 84.153,22.78C83.722,22.962 83.275,23.052 82.813,23.052ZM83.45,20.915C83.913,20.915 84.309,20.802 84.641,20.577C84.972,20.352 85.228,20.04 85.409,19.64C85.591,19.24 85.681,18.771 85.681,18.234C85.681,17.696 85.591,17.227 85.409,16.827C85.228,16.427 84.972,16.118 84.641,15.899C84.309,15.68 83.913,15.571 83.45,15.571C83,15.571 82.606,15.68 82.269,15.899C81.931,16.118 81.672,16.424 81.491,16.818C81.309,17.212 81.219,17.684 81.219,18.234C81.219,18.784 81.309,19.259 81.491,19.659C81.672,20.059 81.931,20.368 82.269,20.587C82.606,20.805 83,20.915 83.45,20.915Z" style="fill:#2f6bf6;fill-rule:nonzero;"/>
        <path d="M94.025,23.052C93.125,23.052 92.325,22.846 91.625,22.434C90.925,22.021 90.372,21.449 89.966,20.718C89.559,19.987 89.356,19.159 89.356,18.234C89.356,17.296 89.556,16.468 89.956,15.749C90.356,15.03 90.909,14.465 91.616,14.052C92.322,13.64 93.125,13.434 94.025,13.434C94.913,13.434 95.706,13.64 96.406,14.052C97.106,14.465 97.656,15.03 98.056,15.749C98.456,16.468 98.656,17.296 98.656,18.234C98.656,19.159 98.456,19.984 98.056,20.709C97.656,21.434 97.106,22.005 96.406,22.424C95.706,22.843 94.913,23.052 94.025,23.052ZM94.025,21.009C94.5,21.009 94.909,20.896 95.253,20.671C95.597,20.446 95.859,20.127 96.041,19.715C96.222,19.302 96.313,18.809 96.313,18.234C96.313,17.646 96.222,17.149 96.041,16.743C95.859,16.337 95.597,16.024 95.253,15.805C94.909,15.587 94.5,15.477 94.025,15.477C93.538,15.477 93.119,15.587 92.769,15.805C92.419,16.024 92.15,16.337 91.963,16.743C91.775,17.149 91.681,17.646 91.681,18.234C91.681,18.809 91.775,19.302 91.963,19.715C92.15,20.127 92.419,20.446 92.769,20.671C93.119,20.896 93.538,21.009 94.025,21.009Z" style="fill:#2f6bf6;fill-rule:nonzero;"/>
    </g>
</svg>
