<?xml version="1.0" encoding="UTF-8" standalone="no"?>
<!DOCTYPE svg PUBLIC "-//W3C//DTD SVG 1.1//EN" "http://www.w3.org/Graphics/SVG/1.1/DTD/svg11.dtd">
<svg width="100%" height="100%" viewBox="0 0 82 25" version="1.1" xmlns="http://www.w3.org/2000/svg" xmlns:xlink="http://www.w3.org/1999/xlink" xml:space="preserve" xmlns:serif="http://www.serif.com/" style="fill-rule:evenodd;clip-rule:evenodd;stroke-linecap:round;stroke-linejoin:round;stroke-miterlimit:1.5;">
    <rect id="logo-dark" x="0" y="0" width="82" height="25" style="fill:none;"/>
    <g>
        <g>
            <path d="M28.9,19.892L28.9,10.208L25.3,10.208L25.3,8.275L34.667,8.275L34.667,10.208L31.083,10.208L31.083,19.892L28.9,19.892Z" style="fill:#23272c;fill-rule:nonzero;"/>
            <path d="M35.6,19.892L35.6,11.675L37.667,11.675L37.667,19.892L35.6,19.892ZM35.533,10.408L35.533,8.275L37.75,8.275L37.75,10.408L35.533,10.408Z" style="fill:#23272c;fill-rule:nonzero;"/>
            <path d="M39.45,19.892L39.45,11.675L41.533,11.675L41.533,13.808L41.083,14.158C41.161,13.636 41.294,13.203 41.483,12.858C41.672,12.514 41.897,12.244 42.158,12.05C42.419,11.855 42.692,11.717 42.975,11.633C43.258,11.55 43.539,11.508 43.817,11.508C44.25,11.508 44.661,11.589 45.05,11.75C45.439,11.911 45.778,12.186 46.067,12.575C46.356,12.964 46.556,13.497 46.667,14.175L45.433,14.625C45.6,13.847 45.842,13.23 46.158,12.775C46.475,12.319 46.842,11.994 47.258,11.8C47.675,11.605 48.117,11.508 48.583,11.508C49.283,11.508 49.85,11.664 50.283,11.975C50.717,12.286 51.036,12.683 51.242,13.167C51.447,13.65 51.55,14.164 51.55,14.708L51.55,19.892L49.483,19.892L49.483,15.208C49.483,14.797 49.431,14.45 49.325,14.167C49.219,13.883 49.067,13.669 48.867,13.525C48.667,13.38 48.406,13.308 48.083,13.308C47.75,13.308 47.467,13.397 47.233,13.575C47,13.753 46.825,14.019 46.708,14.375C46.592,14.73 46.533,15.186 46.533,15.742L46.533,19.892L44.467,19.892L44.467,15.175C44.467,14.553 44.353,14.086 44.125,13.775C43.897,13.464 43.567,13.308 43.133,13.308C42.789,13.308 42.497,13.397 42.258,13.575C42.019,13.753 41.839,14.019 41.717,14.375C41.594,14.73 41.533,15.186 41.533,15.742L41.533,19.892L39.45,19.892Z" style="fill:#23272c;fill-rule:nonzero;"/>
            <path d="M56.917,20.058C56.206,20.058 55.594,19.942 55.083,19.708C54.572,19.475 54.153,19.161 53.825,18.767C53.497,18.372 53.256,17.922 53.1,17.417C52.944,16.911 52.867,16.38 52.867,15.825C52.867,15.292 52.944,14.769 53.1,14.258C53.256,13.747 53.489,13.286 53.8,12.875C54.111,12.464 54.514,12.133 55.008,11.883C55.503,11.633 56.094,11.508 56.783,11.508C57.428,11.508 57.989,11.617 58.467,11.833C58.944,12.05 59.339,12.35 59.65,12.733C59.961,13.117 60.197,13.564 60.358,14.075C60.519,14.586 60.6,15.13 60.6,15.708C60.6,15.786 60.597,15.894 60.592,16.033C60.586,16.172 60.572,16.319 60.55,16.475L54.933,16.475C54.989,17.064 55.208,17.508 55.592,17.808C55.975,18.108 56.456,18.258 57.033,18.258C57.456,18.258 57.867,18.183 58.267,18.033C58.667,17.883 59.022,17.669 59.333,17.392L60.367,18.792C59.978,19.092 59.611,19.336 59.267,19.525C58.922,19.714 58.564,19.85 58.192,19.933C57.819,20.017 57.394,20.058 56.917,20.058ZM58.55,15.442C58.572,15.353 58.592,15.264 58.608,15.175C58.625,15.086 58.633,15.003 58.633,14.925C58.633,14.692 58.589,14.472 58.5,14.267C58.411,14.061 58.289,13.88 58.133,13.725C57.978,13.569 57.792,13.45 57.575,13.367C57.358,13.283 57.111,13.242 56.833,13.242C56.422,13.242 56.078,13.325 55.8,13.492C55.522,13.658 55.314,13.872 55.175,14.133C55.036,14.394 54.95,14.664 54.917,14.942L59.25,14.942L58.55,15.442Z" style="fill:#23272c;fill-rule:nonzero;"/>
            <path d="M65.133,20.058C64.411,20.058 63.789,19.872 63.267,19.5C62.744,19.128 62.342,18.617 62.058,17.967C61.775,17.317 61.633,16.586 61.633,15.775C61.633,14.875 61.792,14.108 62.108,13.475C62.425,12.842 62.85,12.355 63.383,12.017C63.917,11.678 64.5,11.508 65.133,11.508C65.578,11.508 65.992,11.6 66.375,11.783C66.758,11.967 67.089,12.242 67.367,12.608C67.644,12.975 67.828,13.442 67.917,14.008L67.5,13.892L67.5,8.275L69.55,8.275L69.55,19.892L67.5,19.892L67.5,17.692L67.983,17.458C67.85,18.103 67.636,18.617 67.342,19C67.047,19.383 66.708,19.655 66.325,19.817C65.942,19.978 65.544,20.058 65.133,20.058ZM65.7,18.158C66.111,18.158 66.464,18.058 66.758,17.858C67.053,17.658 67.281,17.38 67.442,17.025C67.603,16.669 67.683,16.253 67.683,15.775C67.683,15.297 67.603,14.88 67.442,14.525C67.281,14.169 67.053,13.894 66.758,13.7C66.464,13.505 66.111,13.408 65.7,13.408C65.3,13.408 64.95,13.505 64.65,13.7C64.35,13.894 64.119,14.167 63.958,14.517C63.797,14.867 63.717,15.286 63.717,15.775C63.717,16.264 63.797,16.686 63.958,17.042C64.119,17.397 64.35,17.672 64.65,17.867C64.95,18.061 65.3,18.158 65.7,18.158Z" style="fill:#2f6bf6;fill-rule:nonzero;"/>
            <path d="M75.1,20.058C74.3,20.058 73.589,19.875 72.967,19.508C72.344,19.142 71.853,18.633 71.492,17.983C71.131,17.333 70.95,16.597 70.95,15.775C70.95,14.942 71.128,14.205 71.483,13.567C71.839,12.928 72.331,12.425 72.958,12.058C73.586,11.692 74.3,11.508 75.1,11.508C75.889,11.508 76.594,11.692 77.217,12.058C77.839,12.425 78.328,12.928 78.683,13.567C79.039,14.205 79.217,14.942 79.217,15.775C79.217,16.597 79.039,17.33 78.683,17.975C78.328,18.619 77.839,19.128 77.217,19.5C76.594,19.872 75.889,20.058 75.1,20.058ZM75.1,18.242C75.522,18.242 75.886,18.142 76.192,17.942C76.497,17.742 76.731,17.458 76.892,17.092C77.053,16.725 77.133,16.286 77.133,15.775C77.133,15.253 77.053,14.811 76.892,14.45C76.731,14.089 76.497,13.811 76.192,13.617C75.886,13.422 75.522,13.325 75.1,13.325C74.667,13.325 74.294,13.422 73.983,13.617C73.672,13.811 73.433,14.089 73.267,14.45C73.1,14.811 73.017,15.253 73.017,15.775C73.017,16.286 73.1,16.725 73.267,17.092C73.433,17.458 73.672,17.742 73.983,17.942C74.294,18.142 74.667,18.242 75.1,18.242Z" style="fill:#2f6bf6;fill-rule:nonzero;"/>
        </g>
        <g>
            <circle cx="11.81" cy="14.167" r="9" style="fill:none;stroke:#23272c;stroke-width:2.2px;"/>
            <path d="M11.88,4.14C11.88,4.14 11.9,3.402 11.862,2.316" style="fill:none;stroke:#23272c;stroke-width:2.2px;"/>
            <path d="M8.862,2.3C14.84,2.3 4.174,2.3 14.862,2.3" style="fill:none;stroke:#23272c;stroke-width:2.2px;"/>
            <path d="M7.662,15.235L11.471,18.513L15.823,10.012" style="fill:none;stroke:#23272c;stroke-width:2.2px;"/>
        </g>
    </g>
</svg>
